<mxfile host="app.diagrams.net" modified="2021-06-24T04:23:33.945Z" agent="5.0 (X11; Linux x86_64) AppleWebKit/537.36 (KHTML, like Gecko) Chrome/89.0.4389.114 Safari/537.36" etag="PXU03pMPC4CfvzCuGLjs" version="14.8.0" type="github">
  <diagram id="QpMZWlb5OPHm9vOYozJh" name="Page-1">
    <mxGraphModel dx="837" dy="789" grid="1" gridSize="10" guides="1" tooltips="1" connect="1" arrows="1" fold="1" page="1" pageScale="1" pageWidth="827" pageHeight="1169" math="0" shadow="0">
      <root>
        <mxCell id="0" />
        <mxCell id="1" parent="0" />
        <mxCell id="Hlu9HpWihLqLZo3m4ehg-13" value="" style="edgeStyle=orthogonalEdgeStyle;rounded=0;orthogonalLoop=1;jettySize=auto;html=1;startArrow=none;startFill=0;endArrow=none;endFill=0;" edge="1" parent="1" source="Hlu9HpWihLqLZo3m4ehg-1" target="Hlu9HpWihLqLZo3m4ehg-12">
          <mxGeometry relative="1" as="geometry" />
        </mxCell>
        <mxCell id="Hlu9HpWihLqLZo3m4ehg-1" value="PixHawk" style="rounded=0;whiteSpace=wrap;html=1;fillColor=#d5e8d4;strokeColor=#82b366;" vertex="1" parent="1">
          <mxGeometry x="290" y="190" width="230" height="90" as="geometry" />
        </mxCell>
        <mxCell id="Hlu9HpWihLqLZo3m4ehg-11" style="edgeStyle=orthogonalEdgeStyle;rounded=0;orthogonalLoop=1;jettySize=auto;html=1;entryX=0.5;entryY=0;entryDx=0;entryDy=0;startArrow=none;startFill=0;endArrow=none;endFill=0;" edge="1" parent="1" source="Hlu9HpWihLqLZo3m4ehg-2" target="Hlu9HpWihLqLZo3m4ehg-10">
          <mxGeometry relative="1" as="geometry" />
        </mxCell>
        <mxCell id="Hlu9HpWihLqLZo3m4ehg-2" value="STM32" style="rounded=0;whiteSpace=wrap;html=1;fillColor=#d5e8d4;strokeColor=#82b366;" vertex="1" parent="1">
          <mxGeometry x="600" y="190" width="200" height="90" as="geometry" />
        </mxCell>
        <mxCell id="Hlu9HpWihLqLZo3m4ehg-9" value="Telemetry" style="edgeStyle=orthogonalEdgeStyle;rounded=0;orthogonalLoop=1;jettySize=auto;html=1;exitX=1;exitY=0.5;exitDx=0;exitDy=0;entryX=0;entryY=0.5;entryDx=0;entryDy=0;startArrow=classic;startFill=1;dashed=1;" edge="1" parent="1" source="Hlu9HpWihLqLZo3m4ehg-3" target="Hlu9HpWihLqLZo3m4ehg-8">
          <mxGeometry relative="1" as="geometry">
            <Array as="points">
              <mxPoint x="270" y="235" />
              <mxPoint x="270" y="235" />
            </Array>
          </mxGeometry>
        </mxCell>
        <mxCell id="Hlu9HpWihLqLZo3m4ehg-15" style="edgeStyle=orthogonalEdgeStyle;rounded=0;orthogonalLoop=1;jettySize=auto;html=1;exitX=0.5;exitY=1;exitDx=0;exitDy=0;entryX=0.5;entryY=0;entryDx=0;entryDy=0;startArrow=none;startFill=0;endArrow=none;endFill=0;" edge="1" parent="1" source="Hlu9HpWihLqLZo3m4ehg-3" target="Hlu9HpWihLqLZo3m4ehg-14">
          <mxGeometry relative="1" as="geometry" />
        </mxCell>
        <mxCell id="Hlu9HpWihLqLZo3m4ehg-3" value="QGC" style="rounded=0;whiteSpace=wrap;html=1;fillColor=#d5e8d4;strokeColor=#82b366;" vertex="1" parent="1">
          <mxGeometry x="50" y="190" width="150" height="90" as="geometry" />
        </mxCell>
        <mxCell id="Hlu9HpWihLqLZo3m4ehg-4" value="Serial: /dev/ttyS3" style="rounded=0;whiteSpace=wrap;html=1;fillColor=#e1d5e7;strokeColor=#9673a6;" vertex="1" parent="1">
          <mxGeometry x="440" y="210" width="80" height="50" as="geometry" />
        </mxCell>
        <mxCell id="Hlu9HpWihLqLZo3m4ehg-7" style="edgeStyle=orthogonalEdgeStyle;rounded=0;orthogonalLoop=1;jettySize=auto;html=1;exitX=0;exitY=0.5;exitDx=0;exitDy=0;entryX=1;entryY=0.5;entryDx=0;entryDy=0;startArrow=classic;startFill=1;" edge="1" parent="1" source="Hlu9HpWihLqLZo3m4ehg-5" target="Hlu9HpWihLqLZo3m4ehg-4">
          <mxGeometry relative="1" as="geometry" />
        </mxCell>
        <mxCell id="Hlu9HpWihLqLZo3m4ehg-5" value="Serial Port" style="rounded=0;whiteSpace=wrap;html=1;fillColor=#e1d5e7;strokeColor=#9673a6;" vertex="1" parent="1">
          <mxGeometry x="600" y="210" width="70" height="50" as="geometry" />
        </mxCell>
        <mxCell id="Hlu9HpWihLqLZo3m4ehg-8" value="Serial: /dev/ttyS1" style="rounded=0;whiteSpace=wrap;html=1;fillColor=#e1d5e7;strokeColor=#9673a6;" vertex="1" parent="1">
          <mxGeometry x="290" y="210" width="80" height="50" as="geometry" />
        </mxCell>
        <mxCell id="Hlu9HpWihLqLZo3m4ehg-10" value="Sampler" style="rounded=0;whiteSpace=wrap;html=1;fillColor=#dae8fc;strokeColor=#6c8ebf;" vertex="1" parent="1">
          <mxGeometry x="600" y="320" width="200" height="80" as="geometry" />
        </mxCell>
        <mxCell id="Hlu9HpWihLqLZo3m4ehg-12" value="UAV" style="rounded=0;whiteSpace=wrap;html=1;fillColor=#dae8fc;strokeColor=#6c8ebf;" vertex="1" parent="1">
          <mxGeometry x="290" y="320" width="230" height="80" as="geometry" />
        </mxCell>
        <mxCell id="Hlu9HpWihLqLZo3m4ehg-14" value="User" style="rounded=0;whiteSpace=wrap;html=1;fillColor=#dae8fc;strokeColor=#6c8ebf;" vertex="1" parent="1">
          <mxGeometry x="50" y="320" width="150" height="80" as="geometry" />
        </mxCell>
      </root>
    </mxGraphModel>
  </diagram>
</mxfile>
